<svg width="775" height="814" viewBox="0 0 775 814" fill="none" xmlns="http://www.w3.org/2000/svg">
<path fill-rule="evenodd" clip-rule="evenodd" d="M361.152 0.18026C329.13 0.55926 328.469 0.677261 325.409 6.59526C323.274 10.7243 323.247 116.24 325.38 120.296C327.639 124.589 380.148 176.258 382.96 176.955C384.335 177.295 404.241 177.444 427.195 177.285L468.93 176.996L480.855 165.101L492.78 153.207L496.94 154.871C503.576 157.527 515.048 158.766 521.665 157.543C545.505 153.136 561.651 130.847 558.009 107.373C555.694 92.4513 546.151 79.7973 532.248 73.2113C525.829 70.1713 524.835 69.9963 513.96 69.9963C502.899 69.9963 502.193 70.1273 495.46 73.4163C486.241 77.9213 477.913 86.2343 473.787 95.0533C469.849 103.468 468.836 116.643 471.447 125.496C472.339 128.521 473.319 131.995 473.625 133.215C474.065 134.971 472.542 137.207 466.321 143.933L458.46 152.431L425.451 152.464L392.443 152.496L370.701 130.738L348.96 108.979V67.2383V25.4963L385.71 25.4983C443.898 25.5023 470.153 29.1433 511.332 42.9203C572.032 63.2293 622.166 99.6463 657.542 149.126C663.781 157.853 674.96 175.759 674.96 177.027C674.96 177.285 665.531 177.496 654.007 177.496H633.054L631.019 172.897C625.79 161.074 615.669 151.984 603.684 148.344C593.396 145.219 580.802 145.98 571.891 150.266C551.807 159.926 541.995 180.754 547.502 202.036C550.67 214.278 559.371 224.619 571.545 230.612L577.96 233.771V291.633V349.496H528.91C476.494 349.496 477.03 349.449 472.458 354.497C470.555 356.598 470.436 358.498 469.96 394.35L469.46 431.996H456.96H444.46L443.96 391.496C443.49 353.435 443.344 350.845 441.529 348.496C440.467 347.121 430.679 338.371 419.779 329.052L399.96 312.108V270.302V228.496H425.731H451.502L460.225 237.26L468.948 246.023L466.99 251.174C460.827 267.396 465.026 286.42 477.472 298.656C495.192 316.076 523.205 315.5 540.508 297.36C563.839 272.901 552.245 232.578 519.425 224.029C509.676 221.49 497.424 222.502 490.034 226.456C487.837 227.632 487.053 227.069 476.58 216.777C470.464 210.767 464.201 205.32 462.663 204.673C460.686 203.841 448.859 203.496 422.314 203.496C389.63 203.496 384.316 203.708 381.317 205.131C374.795 208.226 374.96 206.609 374.96 267.311C374.96 321.786 374.977 322.248 377.085 324.927C378.253 326.413 388.159 335.283 399.097 344.638L418.985 361.648L418.723 396.822L418.46 431.996L390.46 432.536C375.06 432.833 362.245 433.17 361.983 433.286C360.518 433.931 259.267 535.646 256.855 538.896L253.96 542.796V596.092V649.387L246.829 653.134C237.262 658.161 231.129 664.352 226.564 673.589C213.43 700.164 230.196 731.7 260.093 736.654C272.526 738.714 286.488 734.295 296.694 725.07C302.76 719.587 308.325 709.254 310.125 700.13C311.658 692.363 309.977 681.414 305.962 672.999C302.153 665.019 292.489 655.736 284.578 652.456L278.96 650.128V601.058V551.988L326.21 504.752L373.46 457.515L491.105 457.255C607.157 457 608.78 456.969 610.971 454.996C612.193 453.896 622.253 434.996 633.326 412.996L653.46 372.996L653.96 348.496L654.46 323.996H681.96H709.46L709.726 350.027L709.992 376.058L701.284 395.027C694.907 408.916 692.579 415.067 692.59 417.996C692.6 420.768 701.146 444.72 720.419 495.996C735.716 536.696 748.449 570.784 748.713 571.746C749.162 573.382 747.381 573.496 721.327 573.502C705.699 573.505 691.867 573.95 689.833 574.514C687.839 575.069 685.037 576.691 683.608 578.121C678.669 583.06 678.957 585.358 687.745 611.104L695.771 634.617L693.116 635.647C691.655 636.214 685.285 638.494 678.96 640.715C664.227 645.886 662.285 646.914 659.92 650.795C656.023 657.185 656.93 659.82 668.58 675.951C674.516 684.171 678.816 691.03 678.33 691.503C677.851 691.969 673.869 695.117 669.481 698.498C657.586 707.663 657.974 706.63 657.967 729.11C657.963 739.622 657.507 750.614 656.952 753.536C653.991 769.151 642.662 781.62 627.405 786.055C610.628 790.932 563.632 780.714 515.964 761.824C440.903 732.079 388.737 691.295 369.917 647.643C363.363 632.439 362.68 628.554 362.038 602.816C361.391 576.853 361.127 575.885 353.704 572.192C346.228 568.472 337.778 573.857 336.371 583.238C335.323 590.227 336.653 622.839 338.339 631.496C350.761 695.271 414.223 751.025 518.594 789.86C554.272 803.135 597.67 813.526 617.24 813.479C645.793 813.41 670.399 795.394 680.043 767.496C681.981 761.889 682.37 758.18 682.875 740.513L683.46 720.03L694.46 711.274C712.307 697.068 712.647 694.775 699.599 676.52C694.898 669.941 691.419 664.33 691.869 664.052C692.319 663.774 698.475 661.493 705.549 658.984C719.469 654.046 722.41 652.062 724.08 646.489C725.072 643.178 724.549 641.044 718.062 621.93C714.154 610.416 710.958 600.659 710.959 600.246C710.959 599.833 719.653 599.496 730.278 599.496C744.683 599.496 750.904 599.108 754.734 597.97C766.523 594.47 774.205 584.326 774.217 572.245C774.223 566.732 772.96 562.637 763.501 537.496C757.603 521.821 745.137 488.561 735.797 463.585L718.816 418.174L726.888 400.231L734.96 382.288L734.949 341.142C734.942 311.833 734.513 295.984 733.459 286.05C723.5 192.208 679.473 115.956 603.96 61.7683C566.284 34.7323 517.114 14.3903 469.46 6.12326C437.422 0.565261 418.11 -0.49474 361.152 0.18026ZM36.4602 2.31126C28.7932 5.17426 25.7622 6.96726 20.3972 11.8153C-2.6198 32.6143 3.04121 70.5813 31.2102 84.3273L37.9602 87.6213V144.108C37.9602 191.604 38.1922 201.043 39.4162 203.411C40.2312 204.988 56.9502 219.077 77.4162 235.434L113.96 264.641V333.521C113.96 386.484 114.249 403.041 115.21 405.169C115.898 406.69 124.439 417.174 134.191 428.466L151.922 448.996L151.885 501.996L151.847 554.996L145.077 558.223C111.882 574.041 112.371 621.373 145.895 637.383C153.167 640.856 153.886 640.996 164.46 640.996C177.105 640.996 182.889 639.223 191.436 632.729C201.949 624.741 207.868 613.6 208.725 600.185C209.909 581.654 200.311 565.551 183.21 557.38L176.96 554.394V497.879C176.96 458.152 176.628 440.744 175.842 439.276C175.228 438.128 166.678 427.803 156.842 416.331L138.96 395.475V256.485C138.96 180.041 139.299 117.496 139.713 117.496C140.128 117.496 154.415 125.484 171.463 135.246L202.46 152.996L202.738 166.051L203.015 179.105L197.37 181.445C189.574 184.676 179.837 193.961 175.972 201.85C164.904 224.439 174.078 251.169 196.497 261.66C209.57 267.778 222.274 267.575 235.551 261.036C254.083 251.91 263.636 231.028 258.427 211.031C255.098 198.251 247.186 188.49 234.939 182.054L227.96 178.387V160.076C227.96 139.198 227.894 139 219.214 133.894C184.156 113.274 129.095 82.4963 127.262 82.4963C123.394 82.4963 118.243 85.1353 116.288 88.1183C114.574 90.7333 114.429 95.2843 113.96 161.259L113.46 231.611L88.2102 211.003L62.9602 190.395V139V87.6053L70.0262 83.8923C87.7092 74.6003 97.3512 56.0833 94.0692 37.7183C91.3672 22.6003 82.5322 10.7433 69.2252 4.37526C63.1772 1.48226 61.3472 1.10226 51.9602 0.79126C43.5412 0.51226 40.4692 0.813264 36.4602 2.31126ZM57.7062 27.0343C65.0092 30.0863 68.9602 36.2153 68.9602 44.4963C68.9602 60.7483 50.3842 69.2973 37.8992 58.7913C29.7362 51.9223 29.1082 39.7653 36.4942 31.5903C41.7492 25.7743 50.2962 23.9383 57.7062 27.0343ZM280.23 32.9793C278.453 33.7513 276.086 35.8713 274.969 37.6893C272.985 40.9213 272.945 42.2413 273.2 96.2203L273.46 151.445L298.71 176.765L323.96 202.086V295.045V388.004L276.706 435.25C250.716 461.235 229.116 482.496 228.706 482.496C228.296 482.496 227.96 462.269 227.96 437.547V392.598L234.71 389.385C246.464 383.789 256 371.962 258.899 359.384C261.228 349.283 259.622 338.609 254.208 328.211C249.949 320.031 243.27 313.731 234.101 309.245C227.732 306.129 226.968 305.996 215.46 305.996C203.908 305.996 203.207 306.12 196.695 309.304C179.075 317.921 168.808 336.888 171.689 355.5C173.996 370.404 183.326 383.228 196.404 389.469L202.96 392.598L202.964 455.297C202.967 516.121 203.027 518.094 204.957 521.259C207.649 525.675 212.63 527.961 217.599 527.061C221.057 526.435 227.971 519.865 283.778 464.179C318.052 429.978 346.74 400.781 347.528 399.296C349.676 395.245 349.675 195.744 347.526 191.696C346.738 190.211 335.263 178.2 322.026 165.004L297.96 141.012L297.956 91.0043C297.953 42.6103 297.887 40.8893 295.934 37.6863C293.956 34.4403 288.771 31.4583 285.242 31.5353C284.262 31.5573 282.006 32.2063 280.23 32.9793ZM521.706 97.0343C526.664 99.1063 528.894 101.238 531.079 105.996C533.488 111.241 533.443 117.868 530.963 122.99C526.167 132.897 513.032 136.389 503.846 130.198C493.577 123.278 492.343 109.225 501.238 100.528C506.308 95.5713 514.754 94.1293 521.706 97.0343ZM597.276 172.945C604.682 175.586 609.246 182.474 609.246 191.01C609.246 208.138 587.994 215.906 576.074 203.134C574.762 201.728 573.1 198.309 572.381 195.537C568.406 180.213 582.3 167.604 597.276 172.945ZM223.501 205.376C237.831 211.885 237.877 233.089 223.576 239.583C215.362 243.313 205.708 240.965 200.344 233.933C197.746 230.526 197.46 229.393 197.46 222.496C197.46 215.599 197.746 214.466 200.344 211.059C205.688 204.053 215.362 201.679 223.501 205.376ZM690.949 212.246C695.611 225.081 700.692 243.229 703.483 257.012C705.632 267.627 708.96 291.766 708.96 296.74C708.96 298.381 706.695 298.496 674.428 298.496C636.934 298.496 635.301 298.704 631.128 304.01C629.021 306.688 628.958 307.588 628.882 335.881L628.803 364.996L612.132 398.496L595.46 431.996H545.46H495.46L495.194 403.782L494.929 375.568L544.194 375.282C590.408 375.014 593.653 374.879 596.574 373.11C603.272 369.056 602.96 372.636 602.96 299.729V233.771L609.541 230.531C617.988 226.373 625.837 218.524 629.995 210.077L633.235 203.496H660.503H687.771L690.949 212.246ZM513.437 248.611C518.78 250.095 524.464 255.941 525.958 261.49C529.379 274.193 520.803 285.498 507.75 285.494C497.565 285.491 489.982 278.804 489.179 269.118C488.607 262.227 490.173 257.55 494.46 253.341C499.672 248.226 506.194 246.6 513.437 248.611ZM31.9602 294.036C19.8772 297.408 9.24221 306.567 3.55721 318.496C0.651207 324.596 0.460207 325.704 0.460207 336.496C0.460207 347.093 0.689205 348.493 3.38021 354.32C4.98521 357.798 7.69721 362.41 9.40621 364.569C13.5252 369.774 22.1642 376.177 27.0382 377.638L30.9602 378.813V422.654C30.9602 451.531 30.6152 466.496 29.9492 466.496C27.4502 466.496 19.4592 471.141 14.8892 475.25C8.49121 481.002 4.80821 486.408 1.97821 494.202C0.0652126 499.469 -0.215798 501.892 0.123202 510.202C0.467202 518.626 0.966209 520.941 3.69321 526.755C8.09121 536.132 15.4822 543.656 24.8332 548.278C32.2022 551.92 32.5932 551.996 43.9082 551.996C55.1412 551.996 55.6672 551.896 62.9602 548.37C79.1162 540.558 87.9602 526.453 87.9602 508.496C87.9602 495.232 83.6542 485.298 73.8002 475.824C69.4812 471.672 60.8862 466.496 58.3112 466.496C57.1972 466.496 56.9602 458.81 56.9602 422.654V378.813L60.8662 377.642C66.6802 375.9 75.9632 368.594 80.1892 362.432C89.8252 348.385 90.6722 329.762 82.3692 314.507C78.6172 307.613 69.9682 299.85 61.9602 296.189C53.8882 292.499 40.8272 291.561 31.9602 294.036ZM49.4252 318.592C64.1942 322.31 67.7752 342.671 55.3302 352.163C50.4712 355.869 40.3292 356.635 34.9602 353.702C20.8352 345.983 22.4782 324.351 37.5972 318.961C42.3742 317.258 43.9352 317.209 49.4252 318.592ZM223.46 332.386C228.957 334.923 232.003 338.534 233.494 344.279C236.139 354.477 232.07 363.045 222.728 366.948C215.218 370.086 205.951 367.839 200.708 361.609C197.596 357.91 196.529 353.329 197.187 346.482C198.356 334.32 211.903 327.052 223.46 332.386ZM52.6442 491.439C61.4442 495.435 65.5032 507.61 61.0822 516.745C53.6372 532.123 30.5422 530.361 25.9792 514.066C22.3742 501.188 30.9132 489.54 43.9602 489.54C46.4352 489.54 50.3432 490.395 52.6442 491.439ZM171.112 579.521C177.774 581.372 183.984 590.563 183.932 598.496C183.907 602.345 180.585 608.793 177.128 611.701C164.748 622.118 145.96 613.715 145.96 597.76C145.96 583.947 157.338 575.696 171.112 579.521ZM277.098 676.969C286.093 682.921 287.917 697.523 280.643 705.343C275.026 711.383 265.226 713.203 258.046 709.54C253.469 707.205 249.174 702.364 248.399 698.669C248.092 697.199 247.659 695.114 247.438 694.036C246.72 690.527 249.105 683.66 252.318 679.986C258.31 673.134 269.284 671.798 277.098 676.969Z" fill="white"/>
</svg>
